<?xml version="1.0" encoding="utf-8"?>
<!-- Generator: Adobe Illustrator 16.0.3, SVG Export Plug-In . SVG Version: 6.00 Build 0)  -->
<!DOCTYPE svg PUBLIC "-//W3C//DTD SVG 1.1//EN" "http://www.w3.org/Graphics/SVG/1.1/DTD/svg11.dtd">
<svg version="1.1"
	 id="svg4693" xmlns:dc="http://purl.org/dc/elements/1.1/" xmlns:cc="http://creativecommons.org/ns#" xmlns:rdf="http://www.w3.org/1999/02/22-rdf-syntax-ns#" xmlns:svg="http://www.w3.org/2000/svg" xmlns:sodipodi="http://sodipodi.sourceforge.net/DTD/sodipodi-0.dtd" xmlns:inkscape="http://www.inkscape.org/namespaces/inkscape" sodipodi:docname="octoprint-favicon-apple.svg" inkscape:version="0.48.4 r9939"
	 xmlns="http://www.w3.org/2000/svg" xmlns:xlink="http://www.w3.org/1999/xlink" x="0px" y="0px" width="16px" height="16px"
	 viewBox="0 0 16 16" enable-background="new 0 0 16 16" xml:space="preserve">
<sodipodi:namedview  showgrid="false" inkscape:cy="8.0632297" inkscape:cx="11.852657" inkscape:zoom="31.678384" borderopacity="1.0" bordercolor="#666666" pagecolor="#ffffff" id="base" inkscape:window-maximized="1" inkscape:window-y="760" inkscape:current-layer="layer1" inkscape:pageshadow="2" inkscape:pageopacity="0.0" inkscape:window-x="1912" inkscape:window-height="1017" inkscape:document-units="px" inkscape:window-width="1920">
	</sodipodi:namedview>
<g>
	<g>
		<defs>
			<rect id="SVGID_1_" x="-6.302" y="-6.302" width="28.604" height="28.604"/>
		</defs>
		<clipPath id="SVGID_2_">
			<use xlink:href="#SVGID_1_"  overflow="visible"/>
		</clipPath>
		<g clip-path="url(#SVGID_2_)">
			<defs>
				<rect id="SVGID_3_" x="-6.302" y="-6.302" width="28.604" height="28.604"/>
			</defs>
			<clipPath id="SVGID_4_">
				<use xlink:href="#SVGID_3_"  overflow="visible"/>
			</clipPath>
			<path clip-path="url(#SVGID_4_)" fill="#222222" d="M11.343,0.626H4.658c-2.227,0-4.032,1.805-4.032,4.031v6.686
				c0,2.227,1.805,4.031,4.032,4.031h6.685c2.227,0,4.03-1.805,4.03-4.031V4.657C15.373,2.431,13.569,0.626,11.343,0.626
				 M13.368,6.661c0,0.258-0.211,0.467-0.468,0.467c-0.259,0-0.467-0.209-0.467-0.467V6.423c0-0.167-0.066-0.325-0.185-0.442
				L10.02,3.75C9.9,3.633,9.744,3.568,9.578,3.568H6.423c-0.167,0-0.324,0.065-0.442,0.182L3.75,5.981
				C3.633,6.099,3.567,6.256,3.567,6.423v3.155c0,0.166,0.065,0.323,0.183,0.44l2.23,2.231c0.119,0.117,0.275,0.184,0.442,0.184
				h3.155c0.166,0,0.322-0.066,0.441-0.184l2.229-2.231c0.118-0.117,0.185-0.274,0.185-0.44V9.339c0-0.258,0.208-0.467,0.467-0.467
				c0.257,0,0.468,0.209,0.468,0.467v0.239c0,0.416-0.162,0.808-0.458,1.104l-2.23,2.229c-0.294,0.295-0.686,0.457-1.102,0.457
				H6.423c-0.417,0-0.809-0.162-1.103-0.457l-2.23-2.229c-0.295-0.296-0.458-0.688-0.458-1.104V6.423
				c0-0.418,0.162-0.809,0.458-1.104l2.23-2.229c0.294-0.295,0.686-0.458,1.103-0.458h3.155c0.416,0,0.808,0.162,1.102,0.458
				l2.23,2.229c0.296,0.295,0.458,0.687,0.458,1.104V6.661z M7.194,8.468c-0.258,0-0.468-0.21-0.468-0.469
				c0-0.257,0.209-0.466,0.468-0.466h0.338V7.194c0-0.258,0.21-0.468,0.467-0.468c0.26,0,0.47,0.209,0.47,0.468v0.338h0.337
				c0.259,0,0.468,0.209,0.468,0.466c0,0.259-0.209,0.469-0.468,0.469H8.469v0.338c0,0.259-0.21,0.468-0.47,0.468
				c-0.257,0-0.467-0.209-0.467-0.468V8.468H7.194z M8.96,5.682H7.04L5.683,7.041v1.918l1.357,1.359h1.92l1.309-1.31
				c0.183-0.183,0.479-0.183,0.662,0c0.182,0.183,0.182,0.479,0,0.661l-1.408,1.407c-0.111,0.111-0.265,0.176-0.423,0.176H6.9
				c-0.158,0-0.312-0.064-0.423-0.176L4.923,9.522C4.811,9.411,4.747,9.257,4.747,9.1V6.9c0-0.16,0.063-0.31,0.176-0.424
				l1.554-1.553C6.588,4.811,6.742,4.748,6.9,4.748H9.1c0.158,0,0.312,0.063,0.424,0.176l1.407,1.407
				c0.182,0.182,0.182,0.479,0,0.662c-0.183,0.183-0.479,0.182-0.662,0L8.96,5.682z"/>
		</g>
	</g>
</g>
</svg>
